<svg xmlns="http://www.w3.org/2000/svg" viewBox="0 0 24 24">
    <path d="M1092,444.005a0.978,0.978,0,0,1-.29.709,0.841,0.841,0,0,1-.19.132A2.194,2.194,0,0,1,1090,446h-1v8a2,2,0,0,1-2,2h-14a2,2,0,0,1-2-2v-8h-1a2,2,0,0,1-1.99-1.942c0-.015-0.01-0.03-0.01-0.045V444h0a0.97,0.97,0,0,1,.29-0.666l10.9-10.906a0.53,0.53,0,0,1,.1-0.143,1.037,1.037,0,0,1,1.42,0,0.535,0.535,0,0,1,.1.144l10.9,10.905a0.97,0.97,0,0,1,.29.666h0v0Zm-13,10h2v-5h-2v5Zm1-19.619L1070.38,444H1073v10h4v-6a1,1,0,0,1,1-1h4a1,1,0,0,1,1,1v6h4V444h2.62Z" transform="translate(-1068 -432)" />
</svg>