<svg xmlns="http://www.w3.org/2000/svg" viewBox="0 0 24 24">
    <path d="M1088,312a4,4,0,1,1,2-7.445v-14.31l-14,4.49V307a0.925,0.925,0,0,1-.07.332,3.691,3.691,0,0,1,.07.668,4.046,4.046,0,1,1-2-3.445V294a0.9,0.9,0,0,1,1.14-.971l15.62-5.009a0.959,0.959,0,0,1,.2-0.011c0.01,0,.03-0.009.04-0.009a0.146,0.146,0,0,1,.02,0,0.941,0.941,0,0,1,.89.6,0.015,0.015,0,0,1,.01.016c0.01,0.025.03,0.044,0.04,0.07,0.01,0.054,0,.106.01,0.16a0.792,0.792,0,0,1,.03.154v19A4,4,0,0,1,1088,312Zm0-6a2,2,0,1,0,2,2A2,2,0,0,0,1088,306Zm-16,0a2,2,0,1,0,2,2A2,2,0,0,0,1072,306Z" transform="translate(-1068 -288)" />
</svg>