<svg version="1.1" 
    xmlns="http://www.w3.org/2000/svg" 
    xmlns:xlink="http://www.w3.org/1999/xlink" preserveAspectRatio="xMidYMid meet" viewBox="0 0 640 640">
    <defs>
        <path d="M585.08 342.54C593.39 342.54 600.1 335.82 600.1 327.51C600.1 326.01 600.1 313.99 600.1 312.49C600.1 304.18 593.39 297.46 585.08 297.46C568.91 297.46 488.06 297.46 342.54 297.46C342.49 151.99 342.46 71.18 342.45 55.01C342.45 46.7 335.73 39.99 327.42 39.99C325.92 39.99 313.9 39.99 312.4 39.99C304.09 39.99 297.37 46.7 297.37 55.01C297.38 71.18 297.41 151.99 297.46 297.46C151.99 297.51 71.18 297.54 55.01 297.55C46.7 297.55 39.99 304.27 39.99 312.58C39.99 314.08 39.99 326.1 39.99 327.6C39.99 335.91 46.7 342.63 55.01 342.63C71.18 342.62 151.99 342.59 297.46 342.54C297.46 488.06 297.46 568.91 297.46 585.08C297.46 593.39 304.18 600.1 312.49 600.1C313.99 600.1 326.01 600.1 327.51 600.1C335.82 600.1 342.54 593.39 342.54 585.08C342.54 568.91 342.54 488.06 342.54 342.54C488.06 342.54 568.91 342.54 585.08 342.54Z" id="e9WTWunf5M"/>
    </defs>
    <g>
        <g>
            <g>
                <use xlink:href="#e9WTWunf5M"/>
                <g>
                    <use xlink:href="#e9WTWunf5M" stroke-width="1"/>
                </g>
            </g>
        </g>
    </g>
</svg>